<svg xmlns="http://www.w3.org/2000/svg" viewBox="0 0 288.86 101.47"><defs><style>.cls-1,.cls-2{fill:#fff;}.cls-1{fill-rule:evenodd;}.cls-2{font-size:22px;font-family:Tahoma;}.cls-3{letter-spacing:-0.01em;}</style></defs><g id="Layer_2" data-name="Layer 2"><g id="logo"><path class="cls-1" d="M277.92,0a9.8,9.8,0,0,1,10.94,9.83,10,10,0,1,1-20.06-.4A9.62,9.62,0,0,1,274.27,1,8.44,8.44,0,0,1,277.92,0Zm-6.08,6.39c-3.51,7,4.33,13.75,10.54,10.53a7.87,7.87,0,0,0,4.15-5.77,7.69,7.69,0,0,0-8.71-8.92A8.14,8.14,0,0,0,271.84,6.43Z"/><path class="cls-1" d="M280.66,10.38c1.14,1.49,2.48,2.78,3.54,4.35-1.15-.16-2.1.23-2.84,0-1.45-.44-1.82-3.66-3.84-3.64a25.26,25.26,0,0,0-.11,3.64H275V4.7c2.39.07,6.3-.38,7.4,1.22C283.35,7.33,282.55,10.08,280.66,10.38Zm-3.25-1.12c3.36.82,3.56-3.63,0-2.73Z"/><path class="cls-1" d="M77.86,7.14H88.6V24C91.42,22,94.11,19.52,99,19.49c5.85,0,9.08,3.11,11,7.7a28.67,28.67,0,0,1,1.12,16.31,17,17,0,0,1-7.8,10.94c-4,2.21-10.81,2-14.69-.91-.35.43-.29,1.27-.61,1.72H77.76V7.44C77.75,7.3,77.74,7.15,77.86,7.14Zm19.45,39.7c3.49-2.38,4.73-12.13,2-16.41-2.11-3.33-8.26-2.88-10.73-.4V47.25C91.86,48.27,95.17,48.3,97.31,46.84Z"/><path class="cls-1" d="M158,7.14h10.74V24.05c.37.17.75-.45,1.22-.81a22.34,22.34,0,0,1,4.35-2.73c4.16-1.84,9.87-1.07,12.67,1.62,3.36,3.23,3.44,8.48,3.44,14.89V55.25H179.46V42.39c0-5,.71-11.86-2.43-13.37-2.62-1.26-6.71.12-8.31,1.72V55.25H157.88V7.44C157.88,7.3,157.87,7.15,158,7.14Z"/><path class="cls-1" d="M150.79,11.39c-.06,3.51.14,7.29-.1,10.64-1.3,0-2.27-1.06-3.34-1.73-3.86-2.41-11.58-5.3-17-2.33a4,4,0,0,0-2.23,4.56c.84,3.34,7.3,3.76,10.94,4.66,4,1,8.19,2.66,10.54,5.07,2.91,3,3.82,8.46,2.33,13.06-2.67,8.22-11.79,11.52-22.8,10.64a38.86,38.86,0,0,1-13.27-3.44c.07-3.62-.13-7.5.11-10.94,1.47,0,2.61,1.17,3.74,1.92,4,2.6,11.67,5.85,17.93,3.34,1.76-.7,3.89-2.49,2.94-5.26-1.18-3.48-8.65-4-12.36-5.07-6.72-1.91-12.79-5.36-12-15a11.63,11.63,0,0,1,3-7.09c2.92-3.34,8-5.72,14.08-6.08A40.5,40.5,0,0,1,150.79,11.39Z"/><path class="cls-1" d="M8.37,9.16h22v17c0,8.41,1.21,19.13-2.43,24-4.49,6-14.85,6.89-24.92,4.86V45.73c1.61-.16,2.69.71,4.25,1.11,3.75,1,8.54.41,10.24-2,1.9-2.74,1.31-8.36,1.31-13V17.67c-3.31-.24-7,0-10.53-.1V9.47C8.26,9.32,8.25,9.18,8.37,9.16Z"/><path class="cls-1" d="M52.43,19.49c9.12-.63,14.89,3.22,17.63,8.72C73.92,36,72,46.52,67.42,51.3c-4.89,5.16-15.25,6.86-22.69,3-6.2-3.18-9.94-10.77-8.3-20.87a16,16,0,0,1,5.06-9.82C44.25,21.16,47.82,19.81,52.43,19.49ZM50.81,27.9c-4.48,2.54-4.93,15.84-.81,19.35,2.25,1.92,6.51,1.59,8.41-.2s2.53-5.37,2.53-9c0-5.93-1.57-11.42-7.7-10.74A6.08,6.08,0,0,0,50.81,27.9Z"/><path class="cls-1" d="M212.18,19.49c11.77-.81,19.08,5.67,19.55,16.82.52,12.28-5.25,19.19-16.41,19.95-11.85.82-18.79-5.7-19.45-16.71-.35-5.84,1.09-10.93,3.75-14.28S206.69,19.87,212.18,19.49Zm-1.62,8.41c-4.64,2.61-5,16.76-.31,19.75a7.13,7.13,0,0,0,7.5-.3c2.33-1.82,2.9-6.08,2.83-10.23-.08-5.75-1.83-10.47-7.59-9.83A6,6,0,0,0,210.56,27.9Z"/><path class="cls-1" d="M248.34,53.63V68H237.4V20.51h10.94v3.34c2.79-1.94,5.33-4,9.93-4.36,11.2-.87,15.11,12.78,12.66,23.81a16.73,16.73,0,0,1-7.8,11A15.31,15.31,0,0,1,248.34,53.63Zm9.42-7.39c3.09-2.9,3.62-12.47,1-16.11A6.12,6.12,0,0,0,253.31,28c-1.45.11-4.58.92-5,2s0,2.88,0,4.25v13C252,48.46,255.7,48.18,257.76,46.24Z"/><text class="cls-2" transform="translate(0 92.26)">E<tspan class="cls-3" x="12.34" y="0">v</tspan><tspan x="23.13" y="0">eniment național de carieră</tspan></text></g></g></svg>